<svg width="63" height="96" viewBox="0 0 63 96" fill="none" xmlns="http://www.w3.org/2000/svg">
  <path fill-rule="evenodd" clip-rule="evenodd"
    d="M37.7082 14.5385L37.7762 29.0769H36.505H35.234V26.5788V24.0808L33.8696 24.1314L32.5051 24.1821L32.4669 20.5292L32.4286 16.8763L31.1919 16.8344L29.9553 16.7926L29.8618 14.7157C29.8102 13.5735 29.768 11.9649 29.7677 11.1413L29.7671 9.6436L28.8679 9.64199C28.3735 9.64112 27.7261 9.59962 27.4293 9.5498L26.8898 9.4592V6.92133V4.38346H21.351H15.8121V10.6664V16.9494H17.2508H18.6895V18.899C18.6895 19.9713 18.7319 21.6516 18.784 22.6329L18.8783 24.4174L20.2399 24.3895L21.6013 24.3616L21.62 26.6098L21.6387 28.8577L22.891 28.8214L24.1434 28.785L24.2303 29.2597C24.2781 29.5208 24.2972 30.1485 24.2727 30.6545L24.2283 31.5748L22.8762 31.6043L21.524 31.6339L21.5542 30.3554L21.5846 29.0769H16.1807H10.7769V30.4006V31.7241L9.37417 31.6953L7.97148 31.6665L7.93322 35.7725L7.89509 39.8785L9.19031 39.9204L10.4857 39.9625L10.5234 42.7659L10.5611 45.5691L9.28799 45.6151C7.73209 45.6712 7.86272 45.9231 7.78345 42.7115L7.71742 40.0356H5.07504H2.43266V41.71V43.3844L1.24577 43.4269L0.0588847 43.4693L0.0108315 44.4921C-0.0156398 45.0546 0.00809866 47.3786 0.0636307 49.6564L0.164338 53.7979L1.28261 53.6972L2.40101 53.5966L2.45439 54.7925C2.522 56.3053 2.62688 56.4006 4.22249 56.4002L5.38191 56.3997L5.33501 57.5691L5.2881 58.7383H8.03248H10.7769V60.069C10.7769 61.2224 10.8072 61.3878 11.0045 61.3109C11.1296 61.2621 12.9433 61.2223 15.0351 61.2223H18.8382L18.7998 57.5328L18.7614 53.8434L17.4306 53.8014L16.0999 53.7594V52.4555V51.1517L14.8411 51.1095L13.5822 51.0673L13.5408 49.7941L13.4992 48.521L12.1741 48.4791L10.8488 48.4372L10.8076 47.0126L10.7665 45.5879H12.1384H13.5103V46.976V48.3641H14.949H16.3876V49.6061V50.8481H17.725H19.0624L19.0025 52.2395L18.9425 53.631L21.5586 53.5911L24.1745 53.5512L24.1612 49.5804L24.148 45.6097L25.411 45.5592C26.1056 45.5314 26.714 45.5251 26.7629 45.545C26.8118 45.565 26.8622 47.3885 26.8747 49.5973L26.8975 53.6132L25.5629 53.6552L24.2283 53.6973L24.2805 55.0489L24.3327 56.4005L22.9857 56.4003L21.6387 56.4002V58.9208V61.4414L20.3079 61.4835L18.9772 61.5254V62.9374C18.9772 64.0354 18.9388 64.3101 18.8045 64.1738C18.6787 64.0459 17.5673 63.9984 14.7044 63.9984H10.7769V62.7565V61.5145L9.2303 61.4899C6.87796 61.4525 5.75855 61.4766 5.51973 61.5697C5.3363 61.6412 5.30911 62.0314 5.34249 64.1048L5.38191 66.5555L6.67669 66.6285L7.97148 66.7016L8.00989 70.464L8.04831 74.2265H9.41258H10.7769V75.6146V77.0027H13.4198H16.0628L16.1632 78.1716L16.2635 79.3405H27.1246H37.9857L37.9543 78.1351C37.9273 77.094 37.9553 76.9312 38.1609 76.9418C38.2918 76.9485 38.9817 76.965 39.6938 76.9783L40.9886 77.0027V78.2244V79.4459L40.2333 79.5381C39.8178 79.5888 39.2028 79.6309 38.8666 79.6315L38.2551 79.6328V80.8747V82.1167H27.2494H16.2437V80.8918V79.667L14.8051 79.644L13.3664 79.6211V85.2524V90.8836H14.8051H16.2437L16.2458 91.8699C16.2468 92.4123 16.2868 93.0041 16.3344 93.185L16.4211 93.5137H20.4268H24.4324L24.4743 94.7192L24.516 95.9246L32.7523 95.9623L40.9886 96V94.7569V93.5137H45.0168H49.0451V92.8766C49.0451 92.5261 49.0862 91.9343 49.1366 91.5616L49.228 90.8836H50.6457H52.0633L52.1008 83.9797L52.1382 77.0758L53.397 77.0335L54.6558 76.9913V74.513V72.0348H55.9302H57.2044L57.2969 71.1366C57.3477 70.6427 57.3892 69.9523 57.3892 69.6024V68.9664L58.7919 68.9667L60.1946 68.9669L60.1974 68.0534C60.1988 67.5509 60.2149 66.4003 60.2333 65.4961L60.2666 63.8523H61.6333H63V53.332V42.8117H61.4894H59.9788V37.1863V31.5609H58.6121H57.2454V30.3234V29.086L53.2769 29.0449C51.0943 29.0223 49.2816 29.0313 49.2486 29.0648C49.1514 29.1639 49.1806 38.305 49.2813 39.2835L49.3738 40.1817L50.612 40.1821L51.8504 40.1825L51.8498 44.3099L51.8491 48.4372L50.5191 48.4793L49.1889 48.5212L49.1839 48.0409C49.1812 47.7766 49.183 46.1139 49.1881 44.346C49.2001 40.1241 49.2128 40.1821 48.2718 40.1801C47.8662 40.1792 47.2918 40.1377 46.995 40.0879L46.4555 39.9973L46.4568 35.2311C46.4573 32.6098 46.4988 30.1197 46.5487 29.6979L46.6395 28.9308H47.8422H49.0451V27.5427V26.1546H50.4846H51.9242L51.8873 15.2325L51.8504 4.3104L50.4477 4.26861L49.0451 4.22682L49.044 3.09969C49.0435 2.47972 49.0018 1.5288 48.9513 0.986277L48.8596 0H43.2499H37.64L37.7082 14.5385ZM18.8451 37.4055C18.9178 37.4055 18.9772 37.9644 18.9772 38.6475V39.8894H20.3525H21.728L21.6276 41.2775L21.5273 42.6656H22.8348H24.1424L24.0654 43.9441C23.9594 45.7064 24.0614 45.5879 22.6502 45.5879H21.4229V44.1825V42.7768L20.0778 42.8366L18.7328 42.8963L18.8024 41.5445L18.872 40.1928L17.4499 40.1507L16.0279 40.1086L16.0379 38.7936L16.0477 37.4785L17.1888 37.3969C17.8163 37.3519 18.416 37.3355 18.5214 37.3603C18.6267 37.3852 18.7725 37.4055 18.8451 37.4055ZM54.5119 53.703V58.8958L53.2531 58.8536L51.9943 58.8114L51.9565 53.6608L51.9186 48.5102H53.2153H54.5119V53.703Z"
    fill="white" />
</svg>