<svg width="1200" height="675" viewBox="0 0 1200 675" fill="none" xmlns="http://www.w3.org/2000/svg">
  <g clip-path="url(#clip0_3168_22581)">
    <rect width="1200" height="675" fill="#4218B7" />
    <g filter="url(#filter0_d_3168_22581)">
      <path d="M35.1943 668.679L31.5449 675H5.04395L6.16895 673.052L0 669.489V648.359L35.1943 668.679Z"
        fill="#4F1CDE" />
      <path fill-rule="evenodd" clip-rule="evenodd"
        d="M132.423 609.344L130.173 613.241L134.2 615.565L131.875 619.593L135.772 621.843L105.997 673.415L102.1 671.165L99.8857 675H99.4443L95.748 672.866L94.5166 675H90.4434L65.6982 660.714L67.9482 656.816L64.0518 654.566L66.377 650.54L62.3496 648.215L92.124 596.643L96.1514 598.968L98.4766 594.94L102.374 597.19L104.624 593.294L132.423 609.344ZM105.175 619.939L101.147 617.614L85.0977 645.413L89.125 647.738L86.7998 651.766L90.6973 654.016L93.0215 649.988L97.0488 652.313L113.099 624.514L109.072 622.189L111.322 618.292L107.425 616.042L105.175 619.939Z"
        fill="#4F1CDE" />
      <path
        d="M183.644 638.916L181.394 642.813L185.421 645.138L183.096 649.165L186.993 651.415L173.376 675H152.245L164.319 654.086L160.293 651.762L162.543 647.864L158.646 645.614L156.396 649.512L152.368 647.187L136.318 674.985L136.344 675H115.18L143.345 626.215L147.372 628.54L149.697 624.513L153.595 626.763L155.845 622.866L183.644 638.916Z"
        fill="#4F1CDE" />
      <path d="M242.788 673.063L241.67 675H183.474L194.565 655.787L198.593 658.112L203.168 650.188L242.788 673.063Z"
        fill="#4F1CDE" />
      <path
        d="M359.739 625.115L355.165 633.039L359.191 635.364L352.367 647.186L348.34 644.86L346.015 648.888L342.117 646.638L337.543 654.562L333.516 652.236L326.615 664.188L322.719 661.938L320.469 665.835L316.441 663.51L311.791 671.563L307.765 669.239L305.515 673.136L301.617 670.886L299.242 675H290.442L285.091 671.91L287.341 668.013L283.444 665.763L290.344 653.812L294.241 656.062L296.566 652.035L300.593 654.359L305.168 646.436L309.065 648.686L315.891 636.864L319.917 639.189L322.242 635.162L326.14 637.412L330.715 629.488L310.969 618.088L313.294 614.062L309.267 611.736L313.842 603.812L317.869 606.137L320.119 602.24L359.739 625.115Z"
        fill="#4F1CDE" />
      <path
        d="M414.893 656.958L412.643 660.854L416.67 663.18L412.095 671.104L408.068 668.779L405.743 672.806L381.971 659.081L377.396 667.005L385.319 671.58L383.346 675H363.644L362.571 674.381L364.896 670.354L356.973 665.779L359.223 661.882L355.195 659.558L366.67 639.682L370.697 642.007L375.272 634.083L414.893 656.958Z"
        fill="#4F1CDE" />
      <path d="M430.922 666.212L429.289 675H419.816L424.148 667.498L428.176 669.822L430.426 665.926L430.922 666.212Z"
        fill="#4F1CDE" />
      <path fill-rule="evenodd" clip-rule="evenodd"
        d="M300.689 591.022L298.439 594.919L302.336 597.169L300.012 601.196L304.038 603.521L292.563 623.396L288.536 621.071L286.286 624.969L282.39 622.719L280.064 626.746L283.961 628.996L281.711 632.893L285.738 635.218L274.264 655.093L270.236 652.769L267.911 656.795L264.015 654.545L261.765 658.442L229.938 640.067L232.188 636.17L228.291 633.92L230.616 629.894L226.589 627.568L238.063 607.693L242.091 610.018L244.341 606.121L248.238 608.371L250.562 604.344L246.666 602.094L248.916 598.196L244.889 595.872L256.363 575.996L260.391 578.321L262.716 574.294L266.613 576.544L268.863 572.647L300.689 591.022ZM255.614 623.195L251.587 620.87L247.012 628.794L251.039 631.119L248.714 635.146L256.638 639.721L258.963 635.694L262.99 638.02L267.565 630.095L263.538 627.77L265.863 623.743L257.939 619.168L255.614 623.195ZM271.664 595.396L267.637 593.07L263.062 600.994L267.089 603.319L264.764 607.347L272.688 611.922L275.013 607.895L279.04 610.22L283.615 602.296L279.588 599.971L281.913 595.943L273.989 591.368L271.664 595.396Z"
        fill="#4F1CDE" />
      <path fill-rule="evenodd" clip-rule="evenodd"
        d="M81.2969 579.826L79.0469 583.723L82.9443 585.973L80.6191 590L84.6455 592.325L73.1709 612.2L69.1436 609.875L66.8936 613.772L62.9971 611.522L60.6719 615.55L64.5693 617.8L62.3193 621.696L66.3457 624.021L54.8711 643.896L50.8438 641.572L48.5186 645.599L44.6221 643.349L42.3721 647.246L10.5449 628.871L12.7949 624.974L8.89844 622.724L11.2236 618.697L7.19629 616.372L18.6709 596.497L22.6982 598.821L24.9482 594.925L28.8457 597.175L31.1699 593.147L27.2734 590.897L29.5234 587L25.4961 584.676L36.9717 564.8L40.998 567.125L43.3232 563.098L47.2207 565.348L49.4707 561.451L81.2969 579.826ZM36.2217 611.999L32.1943 609.674L27.6191 617.598L31.6465 619.923L29.3213 623.95L37.2461 628.524L39.5703 624.498L43.5977 626.823L48.1729 618.898L44.1455 616.573L46.4707 612.547L38.5469 607.972L36.2217 611.999ZM52.2715 584.199L48.2441 581.874L43.6699 589.798L47.6963 592.123L45.3711 596.15L53.2959 600.726L55.6211 596.698L59.6475 599.023L64.2227 591.1L60.1953 588.774L62.5205 584.747L54.5967 580.172L52.2715 584.199Z"
        fill="#4F1CDE" />
      <path d="M436.088 638.421L435.791 638.25L436.276 637.407L436.088 638.421Z" fill="#4F1CDE" />
      <path
        d="M450.308 561.935L446.76 581.017L428.038 570.208L423.463 578.132L431.387 582.707L429.062 586.734L433.089 589.06L430.839 592.956L434.736 595.206L432.411 599.233L436.438 601.559L434.188 605.455L438.085 607.705L433.511 615.63L437.537 617.954L430.638 629.905L426.61 627.581L424.285 631.607L420.389 629.357L418.139 633.255L386.312 614.88L388.562 610.982L384.665 608.732L386.989 604.706L382.963 602.381L389.862 590.43L405.711 599.579L403.386 603.606L407.413 605.932L405.088 609.959L413.012 614.533L417.662 606.479L413.635 604.154L415.885 600.258L411.988 598.008L414.312 593.98L410.286 591.655L412.536 587.758L408.639 585.508L410.964 581.481L403.04 576.906L405.29 573.009L401.263 570.685L412.737 550.809L416.765 553.134L421.34 545.21L450.308 561.935Z"
        fill="#4F1CDE" />
      <path fill-rule="evenodd" clip-rule="evenodd"
        d="M245.441 559.125L243.191 563.022L247.219 565.347L244.894 569.374L248.791 571.624L219.016 623.196L215.118 620.946L212.794 624.973L208.767 622.647L206.517 626.545L178.717 610.495L180.967 606.598L177.07 604.348L179.396 600.321L175.368 597.996L205.144 546.424L209.17 548.749L211.495 544.722L215.393 546.972L217.643 543.075L245.441 559.125ZM218.193 569.721L214.166 567.396L198.116 595.194L202.144 597.52L199.818 601.547L203.716 603.797L206.04 599.77L210.067 602.095L226.117 574.295L222.091 571.971L224.341 568.073L220.443 565.823L218.193 569.721Z"
        fill="#4F1CDE" />
      <path
        d="M26.1436 547.983L23.8936 551.88L27.791 554.13L25.4658 558.157L29.4922 560.482L0 611.564V569.955L2.16895 571.208L9.06934 559.257L5.04199 556.932L7.36719 552.904L0 548.65V532.889L26.1436 547.983Z"
        fill="#4F1CDE" />
      <path fill-rule="evenodd" clip-rule="evenodd"
        d="M401.815 533.938L399.565 537.835L403.593 540.159L401.268 544.187L405.165 546.437L375.39 598.009L371.492 595.759L369.168 599.785L365.141 597.46L362.891 601.357L335.091 585.308L337.341 581.41L333.444 579.16L335.77 575.134L331.742 572.809L361.517 521.236L365.544 523.562L367.869 519.534L371.767 521.784L374.017 517.888L401.815 533.938ZM374.567 544.533L370.54 542.208L354.49 570.007L358.518 572.332L356.192 576.359L360.09 578.609L362.414 574.582L366.441 576.907L382.491 549.107L378.465 546.783L380.715 542.886L376.817 540.636L374.567 544.533Z"
        fill="#4F1CDE" />
      <path fill-rule="evenodd" clip-rule="evenodd"
        d="M181.408 524.58L182.459 522.762L198.307 531.912L196.057 535.809L199.954 538.059L165.529 597.685L161.632 595.435L159.382 599.332L151.458 594.757L156.032 586.833L152.006 584.508L160.105 570.478L128.409 552.178L130.659 548.281L126.632 545.956L133.532 534.005L137.56 536.33L139.884 532.303L143.781 534.553L146.031 530.655L150.059 532.98L152.383 528.953L156.28 531.203L158.53 527.307L162.558 529.632L164.883 525.604L168.779 527.854L171.029 523.957L175.057 526.282L177.382 522.255L181.408 524.58ZM169.934 544.456L165.906 542.131L163.656 546.027L159.63 543.703L157.305 547.729L153.407 545.479L151.082 549.507L166.931 558.657L176.155 542.679L172.259 540.429L169.934 544.456Z"
        fill="#4F1CDE" />
      <path fill-rule="evenodd" clip-rule="evenodd"
        d="M350.689 504.42L348.439 508.316L352.336 510.566L350.012 514.594L354.038 516.919L324.264 568.49L320.236 566.166L317.911 570.192L314.015 567.942L311.765 571.84L279.938 553.465L282.188 549.567L278.291 547.317L280.616 543.291L276.589 540.966L283.488 529.015L287.516 531.34L289.766 527.442L301.587 534.268L297.012 542.191L301.039 544.517L298.714 548.544L306.638 553.118L308.963 549.092L312.99 551.417L319.891 539.466L295.988 525.665L298.238 521.769L294.341 519.519L296.666 515.491L292.639 513.166L306.363 489.394L310.391 491.719L312.716 487.691L316.613 489.941L318.863 486.045L350.689 504.42ZM313.062 514.392L317.089 516.717L314.764 520.744L326.715 527.645L333.615 515.693L329.588 513.368L331.913 509.341L319.962 502.441L313.062 514.392Z"
        fill="#4F1CDE" />
      <path fill-rule="evenodd" clip-rule="evenodd"
        d="M135.229 495.494L132.979 499.391L136.877 501.641L134.552 505.668L138.578 507.993L108.804 559.564L104.776 557.24L102.451 561.267L98.5547 559.017L96.3047 562.914L64.4775 544.539L66.7275 540.642L62.8311 538.392L65.1562 534.365L61.1289 532.04L68.0293 520.089L72.0557 522.414L74.3057 518.517L86.127 525.342L81.5518 533.266L85.5791 535.591L83.2539 539.618L91.1787 544.192L93.5029 540.166L97.5303 542.491L104.431 530.54L80.5283 516.739L82.7783 512.843L78.8809 510.593L81.2061 506.565L77.1787 504.24L90.9043 480.468L94.9307 482.793L97.2559 478.766L101.153 481.016L103.403 477.119L135.229 495.494ZM97.6025 505.466L101.629 507.791L99.3037 511.818L111.255 518.719L118.155 506.768L114.128 504.442L116.453 500.415L104.502 493.516L97.6025 505.466Z"
        fill="#4F1CDE" />
      <path
        d="M463.47 491.129L457.247 524.603L455.053 523.336L452.803 527.232L448.905 524.982L444.33 532.907L432.379 526.007L434.629 522.109L430.732 519.859L437.632 507.908L441.529 510.158L443.854 506.132L447.881 508.456L452.456 500.532L456.354 502.782L463.179 490.961L463.47 491.129Z"
        fill="#4F1CDE" />
      <path
        d="M83.9736 465.901L81.7236 469.798L85.75 472.123L74.2754 491.998L70.248 489.674L67.9229 493.7L64.0264 491.45L61.7764 495.348L57.749 493.022L55.4238 497.05L59.4512 499.375L57.2012 503.271L61.0986 505.521L56.5234 513.446L60.5498 515.771L53.6504 527.722L49.623 525.397L47.2979 529.424L43.4014 527.174L41.1514 531.071L9.32422 512.696L11.5742 508.799L7.67773 506.549L10.0029 502.522L5.97559 500.197L12.876 488.246L28.7236 497.396L26.3984 501.423L30.4258 503.748L28.1006 507.775L36.0254 512.35L40.6748 504.296L36.6475 501.971L38.8975 498.074L35.001 495.824L37.3262 491.797L33.2988 489.472L35.5488 485.574L31.6514 483.324L33.9766 479.298L37.874 481.548L40.124 477.65L44.1504 479.976L46.4756 475.948L50.373 478.198L52.6982 474.172L56.7246 476.496L58.9746 472.6L35.2021 458.874L37.5273 454.848L33.501 452.522L38.0752 444.599L42.1025 446.923L44.3525 443.026L83.9736 465.901Z"
        fill="#4F1CDE" />
      <path
        d="M299.434 474.827L294.858 482.751L298.885 485.076L292.061 496.897L288.033 494.572L285.708 498.6L281.811 496.35L277.236 504.273L273.209 501.948L266.309 513.899L262.412 511.649L260.162 515.547L256.135 513.222L251.484 521.275L247.458 518.951L245.208 522.848L241.311 520.598L236.735 528.522L224.784 521.622L227.034 517.725L223.138 515.475L230.037 503.523L233.935 505.773L236.26 501.747L240.286 504.071L244.861 496.147L248.759 498.397L255.584 486.576L259.61 488.901L261.936 484.874L265.833 487.124L270.408 479.2L250.662 467.8L252.987 463.773L248.96 461.448L253.535 453.524L257.562 455.849L259.812 451.952L299.434 474.827Z"
        fill="#4F1CDE" />
      <path
        d="M451.874 447.369L449.624 451.266L453.651 453.591L449.076 461.516L445.05 459.19L442.725 463.217L418.952 449.492L414.377 457.416L422.301 461.991L419.977 466.019L424.003 468.344L421.753 472.24L425.65 474.49L423.325 478.518L427.353 480.843L425.103 484.739L428.999 486.989L424.425 494.914L428.451 497.238L421.552 509.189L417.524 506.865L415.199 510.892L411.303 508.642L409.053 512.539L377.226 494.164L379.476 490.267L375.579 488.017L377.903 483.99L373.877 481.665L380.776 469.714L396.625 478.863L394.3 482.891L398.327 485.216L396.002 489.243L403.926 493.817L408.576 485.764L404.549 483.438L406.799 479.542L402.902 477.292L405.228 473.265L401.2 470.939L403.45 467.042L399.553 464.792L401.878 460.766L393.954 456.19L396.204 452.293L392.177 449.969L403.651 430.093L407.679 432.418L412.254 424.494L451.874 447.369Z"
        fill="#4F1CDE" />
      <path
        d="M244.28 442.984L242.03 446.881L246.057 449.206L234.582 469.081L230.555 466.757L228.229 470.783L224.333 468.533L222.083 472.431L218.056 470.105L215.73 474.133L219.758 476.458L217.508 480.354L221.405 482.604L216.83 490.529L220.856 492.854L213.957 504.805L209.93 502.48L207.604 506.507L203.708 504.257L201.458 508.154L169.631 489.779L171.881 485.882L167.984 483.632L170.31 479.605L166.282 477.28L173.183 465.329L189.03 474.479L186.705 478.506L190.732 480.831L188.407 484.858L196.332 489.433L200.981 481.379L196.954 479.054L199.204 475.157L195.308 472.907L197.633 468.88L193.605 466.555L195.855 462.657L191.958 460.407L194.283 456.381L198.181 458.631L200.431 454.733L204.457 457.059L206.782 453.031L210.68 455.281L213.005 451.255L217.031 453.579L219.281 449.683L195.509 435.957L197.834 431.931L193.808 429.605L198.382 421.682L202.409 424.006L204.659 420.109L244.28 442.984Z"
        fill="#4F1CDE" />
      <path
        d="M12.0156 426.781L13.0664 424.963L28.9141 434.113L26.6641 438.01L30.5615 440.26L0 493.193V456.594L6.7627 444.88L2.86621 442.63L0.541016 446.657L0 446.345V428.993L1.63672 426.158L5.66406 428.483L7.98926 424.456L12.0156 426.781Z"
        fill="#4F1CDE" />
      <path
        d="M396.721 415.526L394.471 419.423L398.498 421.748L387.023 441.623L382.996 439.299L380.671 443.325L376.774 441.075L374.524 444.973L370.497 442.647L368.172 446.675L372.199 449L369.949 452.896L373.846 455.146L369.271 463.071L373.298 465.396L366.398 477.347L362.371 475.022L360.046 479.049L356.149 476.799L353.899 480.696L322.072 462.321L324.322 458.424L320.426 456.174L322.75 452.147L318.724 449.822L325.623 437.871L341.472 447.021L339.146 451.048L343.174 453.373L340.849 457.4L348.772 461.975L353.423 453.921L349.396 451.596L351.646 447.699L347.749 445.449L350.074 441.422L346.047 439.097L348.297 435.199L344.399 432.949L346.725 428.923L350.622 431.173L352.872 427.275L356.898 429.601L359.224 425.573L363.121 427.823L365.446 423.797L369.473 426.121L371.723 422.225L347.95 408.499L350.275 404.473L346.248 402.147L350.823 394.224L354.851 396.548L357.101 392.651L396.721 415.526Z"
        fill="#4F1CDE" />
      <path fill-rule="evenodd" clip-rule="evenodd"
        d="M172.322 403.864L173.373 402.046L189.221 411.196L186.971 415.093L190.868 417.343L156.443 476.969L152.546 474.719L150.296 478.616L142.372 474.041L146.946 466.117L142.92 463.792L151.02 449.762L119.323 431.462L121.573 427.565L117.546 425.24L124.446 413.289L128.474 415.614L130.798 411.587L134.695 413.837L136.945 409.939L140.973 412.265L143.297 408.237L147.194 410.487L149.444 406.591L153.472 408.916L155.797 404.889L159.693 407.139L161.943 403.241L165.971 405.566L168.296 401.539L172.322 403.864ZM160.848 423.74L156.82 421.415L154.57 425.312L150.544 422.987L148.219 427.014L144.321 424.764L141.996 428.791L157.845 437.941L167.069 421.963L163.173 419.713L160.848 423.74Z"
        fill="#4F1CDE" />
      <path
        d="M469.693 457.656L466.146 476.739L458.257 472.185L460.582 468.158L456.555 465.833L461.13 457.909L465.157 460.233L467.407 456.337L469.693 457.656Z"
        fill="#4F1CDE" />
      <path fill-rule="evenodd" clip-rule="evenodd"
        d="M337.671 381.434L335.421 385.33L339.317 387.58L336.993 391.607L341.02 393.933L329.545 413.808L325.518 411.482L323.268 415.38L319.371 413.13L317.046 417.157L320.942 419.407L318.692 423.304L322.72 425.629L311.245 445.504L307.218 443.18L304.893 447.206L300.996 444.956L298.746 448.854L266.919 430.479L269.169 426.581L265.272 424.331L267.598 420.305L263.57 417.979L275.045 398.104L279.072 400.429L281.322 396.532L285.22 398.782L287.544 394.755L283.647 392.505L285.897 388.607L281.87 386.283L293.345 366.407L297.372 368.732L299.697 364.705L303.595 366.955L305.845 363.059L337.671 381.434ZM292.596 413.606L288.568 411.281L283.993 419.205L288.021 421.53L285.695 425.558L293.619 430.132L295.944 426.105L299.972 428.431L304.547 420.506L300.52 418.181L302.845 414.154L294.921 409.579L292.596 413.606ZM308.646 385.807L304.618 383.481L300.043 391.405L304.07 393.73L301.745 397.758L309.67 402.333L311.994 398.306L316.021 400.631L320.597 392.707L316.569 390.382L318.895 386.354L310.971 381.779L308.646 385.807Z"
        fill="#4F1CDE" />
      <path
        d="M126.144 374.778L123.894 378.675L127.791 380.925L125.466 384.952L129.492 387.277L122.668 399.099L118.641 396.773L113.99 404.827L110.094 402.577L107.844 406.475L103.816 404.149L101.491 408.177L97.5947 405.927L95.3447 409.824L91.3174 407.499L88.9922 411.525L84.9648 409.201L82.7148 413.098L98.6934 422.323L96.3682 426.35L100.266 428.6L97.9404 432.627L101.968 434.952L97.3926 442.876L93.3652 440.551L91.1152 444.448L51.4951 421.573L53.7451 417.676L49.7178 415.351L61.1934 395.476L65.2197 397.801L67.5449 393.773L71.4424 396.023L73.6924 392.127L77.7188 394.451L80.0439 390.425L83.9414 392.675L86.1914 388.777L90.2178 391.103L92.543 387.075L96.4404 389.325L98.7656 385.299L102.792 387.623L107.367 379.699L99.4434 375.124L97.1182 379.151L93.0908 376.826L90.8408 380.724L74.9932 371.573L81.8184 359.752L85.8447 362.077L88.1699 358.05L92.0674 360.3L94.3174 356.403L126.144 374.778Z"
        fill="#4F1CDE" />
      <path
        d="M489.078 353.379L481.983 391.544L478.822 389.719L476.497 393.746L480.523 396.071L478.273 399.968L480.21 401.085L478.968 407.765L477.596 410.143L478.436 410.627L476.418 421.48L474.723 424.418L470.696 422.094L468.371 426.12L464.474 423.87L462.224 427.768L430.397 409.393L432.647 405.495L428.75 403.245L431.075 399.219L427.048 396.894L433.948 384.942L449.797 394.092L447.472 398.119L451.498 400.444L449.174 404.472L457.098 409.046L461.748 400.992L457.721 398.667L459.971 394.771L456.073 392.521L458.398 388.493L454.371 386.168L456.621 382.271L452.725 380.021L455.05 375.994L458.946 378.244L461.196 374.347L465.224 376.672L467.549 372.645L471.445 374.895L473.771 370.868L477.798 373.192L480.048 369.296L456.275 355.57L458.601 351.544L454.573 349.219L459.148 341.295L463.175 343.619L465.425 339.723L489.078 353.379Z"
        fill="#4F1CDE" />
      <path fill-rule="evenodd" clip-rule="evenodd"
        d="M282.423 349.536L280.173 353.434L284.2 355.758L281.875 359.785L285.772 362.035L255.997 413.607L252.1 411.357L249.775 415.384L245.748 413.059L243.498 416.956L215.698 400.906L217.948 397.009L214.052 394.759L216.377 390.732L212.35 388.407L242.124 336.835L246.151 339.16L248.477 335.133L252.374 337.383L254.624 333.486L282.423 349.536ZM255.175 360.132L251.147 357.807L235.098 385.605L239.125 387.931L236.8 391.958L240.697 394.208L243.021 390.181L247.049 392.506L263.099 364.706L259.072 362.382L261.322 358.484L257.425 356.234L255.175 360.132Z"
        fill="#4F1CDE" />
      <path fill-rule="evenodd" clip-rule="evenodd"
        d="M70.9902 342.936L68.7402 346.832L72.6377 349.082L70.3125 353.109L74.3389 355.435L44.5645 407.006L40.5371 404.682L38.2119 408.708L34.3154 406.458L32.0654 410.355L0.238281 391.98L2.48828 388.083L0 386.646V383.394L0.916992 381.807L0 381.276V374.094L3.79004 367.53L7.81641 369.855L10.0664 365.958L21.8877 372.783L17.3125 380.707L21.3398 383.032L19.0146 387.06L26.9395 391.634L29.2637 387.607L33.291 389.933L40.1914 377.981L16.2891 364.181L18.5391 360.284L14.6416 358.034L16.9668 354.007L12.9395 351.682L26.665 327.909L30.6914 330.234L33.0166 326.207L36.9141 328.457L39.1641 324.561L70.9902 342.936ZM33.3633 352.907L37.3896 355.232L35.0645 359.26L47.0156 366.16L53.916 354.209L49.8887 351.884L52.2139 347.856L40.2627 340.957L33.3633 352.907Z"
        fill="#4F1CDE" />
      <path fill-rule="evenodd" clip-rule="evenodd"
        d="M433.089 323.478L434.139 321.659L449.987 330.81L447.737 334.706L451.634 336.956L417.209 396.582L413.312 394.332L411.062 398.229L403.138 393.654L407.713 385.73L403.686 383.405L411.786 369.375L380.089 351.075L382.339 347.179L378.312 344.854L385.212 332.902L389.239 335.228L391.564 331.2L395.462 333.45L397.712 329.553L401.738 331.878L404.063 327.851L407.961 330.101L410.211 326.204L414.237 328.529L416.562 324.502L420.46 326.752L422.71 322.854L426.736 325.18L429.062 321.152L433.089 323.478ZM421.613 343.354L417.587 341.028L415.337 344.925L411.31 342.601L408.984 346.627L405.088 344.377L402.763 348.404L418.611 357.555L427.836 341.576L423.938 339.326L421.613 343.354Z"
        fill="#4F1CDE" />
      <path fill-rule="evenodd" clip-rule="evenodd"
        d="M218.39 314.991L219.44 313.173L235.288 322.323L233.038 326.22L236.936 328.47L202.511 388.096L198.613 385.846L196.363 389.743L188.439 385.168L193.014 377.244L188.987 374.919L197.087 360.889L165.391 342.589L167.641 338.692L163.613 336.367L170.514 324.416L174.541 326.741L176.865 322.714L180.763 324.964L183.013 321.066L187.04 323.392L189.364 319.364L193.262 321.614L195.512 317.718L199.539 320.043L201.864 316.016L205.761 318.266L208.011 314.368L212.038 316.693L214.363 312.666L218.39 314.991ZM206.915 334.867L202.888 332.542L200.638 336.438L196.611 334.114L194.286 338.141L190.389 335.891L188.063 339.918L203.912 349.068L213.137 333.09L209.24 330.84L206.915 334.867Z"
        fill="#4F1CDE" />
      <path
        d="M386.909 294.392L384.659 298.288L388.557 300.538L386.231 304.565L390.259 306.891L383.434 318.712L379.406 316.387L374.757 324.44L370.859 322.19L368.609 326.088L364.583 323.763L362.258 327.79L358.36 325.54L356.11 329.438L352.083 327.112L349.759 331.139L345.731 328.814L343.481 332.711L359.46 341.937L357.135 345.963L361.031 348.213L358.707 352.24L362.733 354.565L358.159 362.489L354.132 360.164L351.882 364.062L312.261 341.187L314.511 337.289L310.484 334.964L321.959 315.089L325.986 317.414L328.311 313.387L332.208 315.637L334.458 311.74L338.485 314.064L340.811 310.038L344.707 312.288L346.957 308.391L350.984 310.716L353.31 306.688L357.206 308.938L359.531 304.912L363.559 307.236L368.134 299.312L360.209 294.737L357.885 298.765L353.857 296.439L351.607 300.337L335.759 291.187L342.584 279.365L346.611 281.69L348.936 277.663L352.833 279.913L355.083 276.017L386.909 294.392Z"
        fill="#4F1CDE" />
      <path d="M0.885742 355.288L0 356.822V354.776L0.885742 355.288Z" fill="#4F1CDE" />
      <path
        d="M15.8369 311.093L13.5869 314.989L17.4844 317.239L15.1592 321.267L19.1855 323.592L7.71094 343.467L3.68359 341.142L1.43359 345.039L0 344.211V301.949L15.8369 311.093Z"
        fill="#4F1CDE" />
      <path
        d="M176.108 288.155L171.533 296.079L175.56 298.404L168.735 310.226L164.708 307.9L162.383 311.928L158.485 309.678L153.911 317.602L149.884 315.276L142.983 327.228L139.087 324.978L136.837 328.875L132.81 326.55L128.16 334.604L124.133 332.279L121.883 336.176L117.985 333.926L113.41 341.851L101.459 334.95L103.709 331.053L99.8125 328.803L106.712 316.852L110.609 319.102L112.935 315.075L116.961 317.399L121.536 309.476L125.434 311.726L132.259 299.904L136.285 302.229L138.61 298.202L142.508 300.452L147.083 292.528L127.337 281.128L129.662 277.102L125.636 274.776L130.21 266.853L134.237 269.177L136.487 265.28L176.108 288.155Z"
        fill="#4F1CDE" />
      <path fill-rule="evenodd" clip-rule="evenodd"
        d="M331.756 262.549L329.506 266.445L333.403 268.695L331.078 272.723L335.105 275.048L305.33 326.619L301.304 324.295L298.979 328.321L295.081 326.071L292.831 329.969L261.005 311.594L263.255 307.696L259.357 305.446L261.683 301.42L257.655 299.095L264.556 287.144L268.583 289.469L270.833 285.571L282.654 292.396L278.079 300.32L282.106 302.646L279.781 306.673L287.705 311.247L290.03 307.221L294.058 309.546L300.957 297.595L277.055 283.794L279.305 279.897L275.408 277.647L277.732 273.62L273.706 271.295L287.431 247.522L291.458 249.848L293.783 245.82L297.68 248.07L299.93 244.174L331.756 262.549ZM294.129 272.521L298.156 274.846L295.831 278.873L307.782 285.773L314.683 273.822L310.655 271.497L312.98 267.47L301.029 260.57L294.129 272.521Z"
        fill="#4F1CDE" />
      <path
        d="M117.058 254.062L114.808 257.959L118.705 260.209L116.38 264.236L120.406 266.562L113.582 278.383L109.555 276.058L104.904 284.111L101.008 281.861L98.7578 285.759L94.7305 283.434L92.4053 287.461L88.5088 285.211L86.2588 289.108L82.2314 286.783L79.9062 290.81L75.8789 288.485L73.6289 292.382L89.6074 301.607L87.2822 305.634L91.1797 307.884L88.8545 311.911L92.8818 314.236L88.3066 322.16L84.2793 319.835L82.0293 323.732L42.4092 300.857L44.6592 296.96L40.6318 294.635L52.1074 274.76L56.1338 277.085L58.459 273.058L62.3564 275.308L64.6064 271.411L68.6328 273.735L70.958 269.709L74.8555 271.959L77.1055 268.062L81.1318 270.387L83.457 266.359L87.3545 268.609L89.6797 264.583L93.7061 266.907L98.2812 258.983L90.3574 254.408L88.0322 258.436L84.0049 256.11L81.7549 260.008L65.9072 250.857L72.7324 239.036L76.7588 241.361L79.084 237.334L82.9814 239.584L85.2314 235.688L117.058 254.062Z"
        fill="#4F1CDE" />
      <path fill-rule="evenodd" clip-rule="evenodd"
        d="M508.464 249.101L495.857 316.913L494.023 320.091L489.996 317.767L487.671 321.793L483.773 319.543L481.523 323.44L449.697 305.065L451.947 301.168L448.051 298.918L450.375 294.892L446.349 292.566L453.248 280.615L457.275 282.94L459.525 279.043L471.347 285.868L466.771 293.792L470.799 296.117L468.474 300.145L476.397 304.719L478.723 300.692L482.75 303.018L489.649 291.066L465.747 277.266L467.997 273.369L464.101 271.119L466.426 267.092L462.398 264.767L476.123 240.994L480.15 243.319L482.476 239.292L486.372 241.542L488.622 237.646L508.464 249.101ZM482.821 265.992L486.849 268.317L484.523 272.345L496.475 279.245L503.375 267.294L499.348 264.969L501.673 260.941L489.722 254.042L482.821 265.992Z"
        fill="#4F1CDE" />
      <path
        d="M280.5 232.956L278.25 236.853L282.277 239.178L277.702 247.103L273.675 244.777L271.35 248.804L247.578 235.079L243.003 243.003L250.927 247.578L248.602 251.605L252.629 253.931L250.379 257.827L254.276 260.077L251.951 264.104L255.978 266.43L253.728 270.326L257.625 272.576L253.05 280.501L257.077 282.825L250.177 294.776L246.15 292.452L243.825 296.479L239.928 294.229L237.678 298.126L205.852 279.751L208.102 275.854L204.204 273.604L206.529 269.577L202.502 267.252L209.402 255.301L225.251 264.45L222.926 268.478L226.953 270.803L224.628 274.83L232.552 279.404L237.202 271.351L233.175 269.025L235.425 265.129L231.527 262.879L233.853 258.852L229.825 256.526L232.075 252.629L228.179 250.379L230.504 246.353L222.579 241.777L224.829 237.88L220.803 235.556L232.277 215.68L236.305 218.005L240.88 210.081L280.5 232.956Z"
        fill="#4F1CDE" />
      <path fill-rule="evenodd" clip-rule="evenodd"
        d="M465.201 224.123L462.951 228.021L466.979 230.345L464.653 234.372L468.551 236.622L438.775 288.194L434.878 285.944L432.554 289.971L428.526 287.646L426.276 291.543L398.477 275.493L400.727 271.596L396.83 269.346L399.154 265.319L395.128 262.994L424.902 211.422L428.93 213.747L431.255 209.72L435.151 211.97L437.401 208.073L465.201 224.123ZM437.953 234.719L433.926 232.394L417.876 260.192L421.903 262.518L419.578 266.545L423.475 268.795L425.8 264.768L429.827 267.093L445.877 239.293L441.85 236.969L444.1 233.071L440.203 230.821L437.953 234.719Z"
        fill="#4F1CDE" />
      <path
        d="M65.8018 224.47L63.5518 228.366L67.5781 230.691L63.0029 238.616L58.9766 236.291L56.6514 240.317L32.8789 226.593L28.3037 234.517L36.2285 239.092L33.9033 243.119L37.9297 245.444L35.6797 249.341L39.5771 251.591L37.252 255.618L41.2793 257.943L39.0293 261.84L42.9268 264.09L38.3516 272.015L42.3779 274.339L35.4785 286.29L31.4512 283.966L29.126 287.992L25.2295 285.742L22.9795 289.64L0 276.372V249.872L10.5518 255.964L8.22656 259.991L12.2539 262.316L9.92871 266.344L17.8535 270.918L22.5029 262.864L18.4756 260.539L20.7256 256.643L16.8291 254.393L19.1543 250.365L15.127 248.04L17.377 244.143L13.4795 241.893L15.8047 237.866L7.88086 233.291L10.1309 229.394L6.10352 227.069L17.5791 207.193L21.6055 209.519L26.1807 201.595L65.8018 224.47Z"
        fill="#4F1CDE" />
      <path fill-rule="evenodd" clip-rule="evenodd"
        d="M221.355 198.809L219.105 202.706L223.132 205.03L220.808 209.058L224.704 211.308L194.93 262.88L191.032 260.63L188.707 264.656L184.681 262.331L182.431 266.229L154.631 250.179L156.881 246.281L152.983 244.031L155.309 240.005L151.282 237.68L181.057 186.107L185.084 188.433L187.409 184.405L191.306 186.655L193.556 182.759L221.355 198.809ZM194.107 209.404L190.08 207.079L174.03 234.878L178.057 237.203L175.732 241.23L179.629 243.48L181.954 239.453L185.981 241.778L202.031 213.979L198.004 211.654L200.254 207.757L196.357 205.507L194.107 209.404Z"
        fill="#4F1CDE" />
      <path
        d="M413.827 194.462L411.577 198.359L415.604 200.685L413.279 204.711L417.307 207.036L387.531 258.608L383.504 256.283L381.18 260.311L377.152 257.985L374.902 261.883L366.979 257.308L371.553 249.383L367.656 247.133L390.606 207.383L378.655 200.482L383.229 192.559L387.257 194.884L389.507 190.986L393.404 193.236L395.729 189.209L399.756 191.534L402.006 187.638L413.827 194.462Z"
        fill="#4F1CDE" />
      <path fill-rule="evenodd" clip-rule="evenodd"
        d="M361.745 166.817L362.795 164.999L378.644 174.149L376.394 178.046L380.291 180.296L345.866 239.922L341.969 237.672L339.719 241.569L331.795 236.994L336.369 229.07L332.343 226.745L340.442 212.715L308.746 194.415L310.996 190.519L306.969 188.193L313.869 176.242L317.896 178.567L320.221 174.54L324.118 176.79L326.368 172.893L330.396 175.218L332.72 171.19L336.617 173.44L338.867 169.544L342.895 171.869L345.22 167.842L349.116 170.092L351.366 166.194L355.394 168.52L357.719 164.492L361.745 166.817ZM350.271 186.693L346.243 184.368L343.993 188.265L339.967 185.94L337.642 189.967L333.744 187.717L331.419 191.744L347.268 200.895L356.492 184.916L352.596 182.666L350.271 186.693Z"
        fill="#4F1CDE" />
      <path
        d="M174.126 171.541L169.551 179.465L173.578 181.79L166.753 193.611L162.727 191.286L160.401 195.313L156.504 193.063L151.929 200.987L147.902 198.662L141.002 210.613L137.104 208.363L134.854 212.261L130.828 209.936L126.178 217.989L122.15 215.665L119.9 219.562L116.004 217.312L111.429 225.236L99.4775 218.336L101.728 214.438L97.8301 212.188L104.73 200.237L108.628 202.487L110.952 198.461L114.979 200.785L119.555 192.861L123.452 195.111L130.276 183.29L134.304 185.615L136.629 181.588L140.525 183.838L145.101 175.914L125.355 164.514L127.681 160.487L123.653 158.162L128.229 150.238L132.256 152.562L134.506 148.666L174.126 171.541Z"
        fill="#4F1CDE" />
      <path
        d="M527.85 144.823L520.754 182.988L520.243 182.693L517.918 186.721L514.021 184.471L511.771 188.368L507.744 186.043L505.419 190.069L501.393 187.745L499.143 191.642L515.12 200.867L512.795 204.894L516.306 206.92L516.061 208.236L514.367 211.171L515.404 211.77L513.63 221.311L509.792 219.095L507.542 222.992L467.922 200.117L470.172 196.22L466.145 193.895L477.62 174.02L481.646 176.345L483.972 172.317L487.869 174.567L490.119 170.671L494.146 172.995L496.471 168.969L500.368 171.219L502.618 167.321L506.646 169.646L508.97 165.619L512.867 167.869L515.192 163.843L519.219 166.167L523.794 158.243L515.87 153.668L513.545 157.695L509.518 155.37L507.268 159.268L491.42 150.117L498.245 138.296L502.271 140.621L504.597 136.594L508.494 138.844L510.744 134.947L527.85 144.823Z"
        fill="#4F1CDE" />
      <path
        d="M6.75098 190.377L4.50098 194.273L8.39844 196.523L6.07324 200.551L10.0996 202.876L0 220.369V186.479L6.75098 190.377Z"
        fill="#4F1CDE" />
      <path fill-rule="evenodd" clip-rule="evenodd"
        d="M102.169 132.421L103.219 130.603L119.067 139.753L116.817 143.649L120.714 145.899L86.2891 205.525L82.3926 203.275L80.1426 207.173L72.2178 202.598L76.793 194.674L72.7656 192.349L80.8662 178.318L49.1699 160.019L51.4199 156.122L47.3926 153.797L54.293 141.846L58.3193 144.171L60.6445 140.144L64.542 142.394L66.792 138.496L70.8184 140.821L73.1436 136.794L77.041 139.044L79.291 135.147L83.3174 137.473L85.6426 133.445L89.54 135.695L91.79 131.798L95.8174 134.123L98.1416 130.096L102.169 132.421ZM90.6943 152.297L86.667 149.972L84.417 153.868L80.3896 151.544L78.0645 155.57L74.168 153.32L71.8428 157.348L87.6914 166.498L96.916 150.52L93.0186 148.27L90.6943 152.297Z"
        fill="#4F1CDE" />
      <path fill-rule="evenodd" clip-rule="evenodd"
        d="M315.472 137.677L313.222 141.574L317.249 143.898L314.924 147.926L318.821 150.176L289.046 201.748L285.148 199.498L282.824 203.524L278.797 201.199L276.547 205.097L248.747 189.047L250.997 185.149L247.101 182.899L249.426 178.873L245.398 176.548L275.173 124.976L279.2 127.301L281.525 123.273L285.423 125.523L287.673 121.627L315.472 137.677ZM288.224 148.272L284.196 145.947L268.146 173.746L272.174 176.071L269.849 180.099L273.746 182.349L276.07 178.321L280.098 180.646L296.147 152.847L292.121 150.522L294.371 146.625L290.474 144.375L288.224 148.272Z"
        fill="#4F1CDE" />
      <path fill-rule="evenodd" clip-rule="evenodd"
        d="M487.417 121.479L485.167 125.376L489.064 127.626L486.739 131.653L490.767 133.979L460.991 185.55L456.964 183.226L454.639 187.252L450.742 185.002L448.492 188.899L416.666 170.524L418.916 166.627L415.019 164.377L417.344 160.351L413.316 158.025L420.217 146.074L424.243 148.399L426.493 144.502L438.314 151.327L433.739 159.251L437.767 161.576L435.441 165.604L443.366 170.178L445.69 166.151L449.718 168.476L456.618 156.524L432.716 142.725L434.966 138.828L431.068 136.578L433.394 132.551L429.366 130.226L443.092 106.453L447.118 108.778L449.443 104.751L453.341 107.001L455.591 103.104L487.417 121.479ZM449.79 131.451L453.816 133.776L451.492 137.804L463.443 144.704L470.343 132.753L466.315 130.428L468.641 126.4L456.689 119.5L449.79 131.451Z"
        fill="#4F1CDE" />
      <path
        d="M64.5811 108.295L62.3311 112.191L66.3574 114.517L54.8828 134.392L50.8555 132.067L48.5303 136.094L44.6338 133.844L42.3838 137.741L38.3564 135.416L36.0312 139.443L40.0586 141.769L37.8086 145.665L41.7061 147.915L37.1309 155.84L41.1572 158.164L34.2578 170.115L30.2305 167.791L27.9053 171.817L24.0088 169.567L21.7588 173.465L0 160.902V134.401L9.33105 139.789L7.00586 143.816L11.0332 146.142L8.70801 150.169L16.6328 154.743L21.2822 146.689L17.2559 144.364L19.5059 140.468L15.6084 138.218L17.9336 134.19L13.9062 131.865L16.1562 127.968L12.2588 125.718L14.584 121.691L18.4814 123.941L20.7314 120.044L24.7578 122.369L27.083 118.342L30.9805 120.592L33.3057 116.565L37.332 118.89L39.582 114.993L15.8096 101.268L18.1348 97.2412L14.1084 94.916L18.6826 86.9922L22.71 89.3164L24.96 85.4199L64.5811 108.295Z"
        fill="#4F1CDE" />
      <path
        d="M268.243 110.409L263.668 118.333L267.694 120.658L260.87 132.479L256.843 130.154L254.518 134.182L250.62 131.932L246.046 139.855L242.019 137.53L235.118 149.481L231.222 147.231L228.972 151.129L224.944 148.804L220.294 156.857L216.268 154.533L214.018 158.43L210.12 156.18L205.545 164.104L193.594 157.204L195.844 153.307L191.947 151.057L198.847 139.105L202.744 141.355L205.069 137.329L209.096 139.653L213.671 131.729L217.568 133.979L224.394 122.158L228.42 124.483L230.745 120.456L234.643 122.706L239.218 114.782L219.472 103.382L221.797 99.3555L217.77 97.0303L222.345 89.1064L226.372 91.4307L228.622 87.5342L268.243 110.409Z"
        fill="#4F1CDE" />
      <path
        d="M436.161 91.8867L433.911 95.7832L437.938 98.1084L433.363 106.032L429.336 103.708L427.011 107.734L403.238 94.0098L398.663 101.934L406.588 106.509L404.263 110.536L408.29 112.861L406.04 116.758L409.937 119.008L407.611 123.035L411.639 125.36L409.389 129.257L413.286 131.507L408.711 139.432L412.738 141.756L405.838 153.707L401.811 151.383L399.485 155.409L395.589 153.159L393.339 157.057L361.513 138.682L363.763 134.784L359.865 132.534L362.19 128.508L358.163 126.183L365.063 114.231L380.911 123.381L378.586 127.408L382.613 129.733L380.288 133.761L388.213 138.335L392.862 130.281L388.836 127.956L391.086 124.06L387.188 121.81L389.514 117.782L385.486 115.457L387.736 111.56L383.839 109.31L386.164 105.283L378.24 100.708L380.49 96.8105L376.463 94.4863L387.938 74.6104L391.965 76.9355L396.54 69.0117L436.161 91.8867Z"
        fill="#4F1CDE" />
      <path
        d="M213.09 78.5664L210.84 82.4629L214.866 84.7881L203.392 104.663L199.364 102.339L197.039 106.365L193.143 104.115L190.893 108.013L186.865 105.688L184.54 109.715L188.567 112.04L186.317 115.937L190.215 118.187L185.64 126.111L189.666 128.436L182.767 140.387L178.739 138.062L176.414 142.089L172.518 139.839L170.268 143.736L138.44 125.361L140.69 121.464L136.794 119.214L139.119 115.188L135.092 112.862L141.991 100.911L157.84 110.061L155.515 114.088L159.542 116.413L157.217 120.44L165.141 125.015L169.791 116.961L165.764 114.636L168.014 110.739L164.117 108.489L166.442 104.462L162.415 102.137L164.665 98.2393L160.768 95.9893L163.093 91.9629L166.99 94.2129L169.24 90.3154L173.267 92.6406L175.592 88.6133L179.489 90.8633L181.814 86.8369L185.841 89.1611L188.091 85.2646L164.318 71.5391L166.644 67.5127L162.616 65.1875L167.191 57.2637L171.219 59.5879L173.469 55.6914L213.09 78.5664Z"
        fill="#4F1CDE" />
      <path fill-rule="evenodd" clip-rule="evenodd"
        d="M377.11 57.7939L374.86 61.6904L378.758 63.9404L376.433 67.9678L380.46 70.293L368.984 90.168L364.958 87.8428L362.708 91.7402L358.811 89.4902L356.485 93.5176L360.383 95.7676L358.133 99.6641L362.159 101.989L350.685 121.864L346.657 119.54L344.333 123.566L340.436 121.316L338.186 125.214L306.359 106.839L308.609 102.941L304.712 100.691L307.037 96.665L303.01 94.3398L314.484 74.4639L318.512 76.7891L320.762 72.8926L324.659 75.1426L326.984 71.1152L323.087 68.8652L325.337 64.9678L321.31 62.6436L332.785 42.7676L336.812 45.0928L339.137 41.0654L343.034 43.3154L345.284 39.4189L377.11 57.7939ZM332.035 89.9668L328.008 87.6416L323.434 95.5654L327.46 97.8906L325.135 101.918L333.06 106.492L335.384 102.466L339.411 104.79L343.986 96.8662L339.959 94.541L342.284 90.5146L334.36 85.9395L332.035 89.9668ZM348.085 62.167L344.059 59.8418L339.483 67.7656L343.51 70.0908L341.186 74.1182L349.109 78.6934L351.435 74.666L355.461 76.9912L360.036 69.0674L356.009 66.7422L358.334 62.7148L350.41 58.1396L348.085 62.167Z"
        fill="#4F1CDE" />
      <path
        d="M532.144 121.726L529.938 120.452L532.188 116.555L528.291 114.305L530.616 110.278L526.589 107.953L538.558 87.2207L532.144 121.726Z"
        fill="#4F1CDE" />
      <path
        d="M154.039 44.4736L151.789 48.3701L155.687 50.6201L153.361 54.6475L157.388 56.9727L150.563 68.7939L146.536 66.4688L141.886 74.5225L137.989 72.2725L135.739 76.1699L131.712 73.8447L129.387 77.8721L125.49 75.6221L123.24 79.5186L119.213 77.1943L116.888 81.2207L112.86 78.8965L110.61 82.793L126.589 92.0186L124.264 96.0449L128.161 98.2949L125.836 102.322L129.863 104.647L125.288 112.571L121.261 110.246L119.011 114.144L79.3906 91.2686L81.6406 87.3711L77.6133 85.0459L89.0889 65.1709L93.1152 67.4961L95.4404 63.4688L99.3379 65.7188L101.588 61.8223L105.614 64.1465L107.939 60.1201L111.837 62.3701L114.087 58.4727L118.113 60.7979L120.438 56.7705L124.336 59.0205L126.661 54.9941L130.688 57.3184L135.263 49.3945L127.339 44.8193L125.014 48.8467L120.986 46.5215L118.736 50.4189L102.889 41.2686L109.714 29.4473L113.74 31.7725L116.065 27.7451L119.963 29.9951L122.213 26.0986L154.039 44.4736Z"
        fill="#4F1CDE" />
      <path fill-rule="evenodd" clip-rule="evenodd"
        d="M545.536 39.5645L543.286 43.4609L546.362 45.2373L545.843 48.0312L544.858 49.7383L545.461 50.0859L543.294 61.7471L519.11 103.635L515.083 101.311L512.758 105.337L508.861 103.087L506.611 106.984L474.784 88.6094L477.034 84.7119L473.138 82.4619L475.463 78.4355L471.436 76.1104L478.335 64.1592L482.362 66.4844L484.612 62.5869L496.434 69.4121L491.858 77.3359L495.886 79.6611L493.561 83.6885L501.485 88.2627L503.81 84.2363L507.837 86.5605L514.737 74.6094L490.835 60.8096L493.085 56.9131L489.188 54.6631L491.513 50.6357L487.485 48.3105L501.211 24.5381L505.237 26.8633L507.562 22.8359L511.46 25.0859L513.71 21.1895L545.536 39.5645ZM507.909 49.5361L511.936 51.8613L509.61 55.8887L521.562 62.7891L528.462 50.8379L524.435 48.5127L526.76 44.4854L514.809 37.585L507.909 49.5361Z"
        fill="#4F1CDE" />
      <path
        d="M5.53027 74.2021L3.28027 78.0986L7.17773 80.3486L4.85254 84.376L8.87988 86.7012L2.05469 98.5225L0 97.3359V71.0088L5.53027 74.2021Z"
        fill="#4F1CDE" />
      <path
        d="M325.854 28.2012L321.279 36.125L325.307 38.4502L318.481 50.2715L314.454 47.9463L312.129 51.9736L308.232 49.7236L303.657 57.6475L299.63 55.3223L292.73 67.2734L288.833 65.0234L286.583 68.9209L282.556 66.5957L277.906 74.6494L273.879 72.3252L271.629 76.2217L267.731 73.9717L263.157 81.8955L251.206 74.9961L253.456 71.0986L249.559 68.8486L256.459 56.8975L260.355 59.1475L262.681 55.1211L266.708 57.4453L271.282 49.5215L275.18 51.7715L282.005 39.9502L286.032 42.2754L288.356 38.248L292.254 40.498L296.829 32.5742L277.084 21.1738L279.408 17.1475L275.382 14.8223L279.957 6.89844L283.983 9.22266L286.233 5.32617L325.854 28.2012Z"
        fill="#4F1CDE" />
      <path
        d="M98.6377 12.4873L96.3877 16.3848L100.415 18.71L98.0898 22.7363L102.117 25.0615L72.3418 76.6338L68.3154 74.3086L65.9902 78.3359L61.9629 76.0107L59.7129 79.9072L51.7891 75.333L56.3643 67.4082L52.4668 65.1582L75.417 25.4082L63.4658 18.5078L68.041 10.584L72.0674 12.9092L74.3174 9.01172L78.2148 11.2617L80.54 7.23438L84.5664 9.55957L86.8164 5.66309L98.6377 12.4873Z"
        fill="#4F1CDE" />
      <path
        d="M490.383 7.72168L488.133 11.6182L492.03 13.8682L489.705 17.8955L493.731 20.2207L486.907 32.042L482.88 29.7168L478.229 37.7705L474.333 35.5205L472.083 39.418L468.056 37.0928L465.73 41.1201L461.834 38.8701L459.584 42.7666L455.557 40.4424L453.231 44.4688L449.204 42.1445L446.954 46.041L462.933 55.2666L460.607 59.293L464.505 61.543L462.18 65.5703L466.207 67.8955L461.632 75.8193L457.604 73.4941L455.354 77.3916L415.734 54.5166L417.984 50.6191L413.957 48.2939L425.433 28.4189L429.459 30.7441L431.784 26.7168L435.682 28.9668L437.932 25.0703L441.958 27.3945L444.283 23.3682L448.181 25.6182L450.431 21.7207L454.457 24.0459L456.782 20.0186L460.68 22.2686L463.005 18.2422L467.031 20.5664L471.606 12.6426L463.683 8.06738L461.357 12.0947L457.33 9.76953L455.08 13.667L439.232 4.5166L441.84 0H477.009L490.383 7.72168Z"
        fill="#4F1CDE" />
      <path fill-rule="evenodd" clip-rule="evenodd"
        d="M227.105 8.25391L251.008 22.0537L248.758 25.9512L252.654 28.2012L250.33 32.2285L254.356 34.5527L240.632 58.3252L236.604 56.001L234.279 60.0273L230.383 57.7773L228.133 61.6748L196.306 43.2998L198.556 39.4023L194.659 37.1523L196.984 33.126L192.957 30.8008L210.74 0H231.87L227.105 8.25391ZM213.38 32.0264L217.407 34.3516L215.082 38.3789L227.033 45.2783L233.934 33.3271L229.906 31.002L232.231 26.9756L220.28 20.0752L213.38 32.0264Z"
        fill="#4F1CDE" />
      <path
        d="M25.8623 2.16699L23.5381 6.19434L35.4883 13.0947L42.3887 1.14355L40.4082 0H58.8105L58.7852 0.0439453L62.8125 2.36914L33.0371 53.9404L29.0098 51.6162L26.6846 55.6426L22.7881 53.3926L20.5381 57.29L0 45.4326V13.7354L10.3604 19.7178L5.78516 27.6416L9.8125 29.9668L7.4873 33.9941L15.4121 38.5684L17.7363 34.542L21.7637 36.8662L28.6641 24.915L4.76172 11.1152L7.01172 7.21875L3.11426 4.96875L5.43945 0.941406L3.80859 0H22.1104L25.8623 2.16699Z"
        fill="#4F1CDE" />
      <path
        d="M407.845 4.92871L410.69 0H431.821L406.443 43.9561L402.546 41.7061L400.296 45.6035L392.372 41.0283L396.946 33.1045L392.92 30.7793L401.02 16.749L372.01 0H399.309L407.845 4.92871Z"
        fill="#4F1CDE" />
      <path
        d="M183.118 30.4893L179.221 28.2393L176.971 32.1367L169.047 27.5615L173.622 19.6377L169.595 17.3125L177.694 3.28223L172.01 0H200.721L183.118 30.4893Z"
        fill="#4F1CDE" />
      <path
        d="M268.705 0.401367L266.38 4.42871L270.406 6.75391L263.582 18.5752L259.555 16.25L257.229 20.2773L245.408 13.4521L249.983 5.52832L245.956 3.20312L247.806 0H268.01L268.705 0.401367Z"
        fill="#4F1CDE" />
      <path d="M551.697 1.7832L547.122 9.70703L543.095 7.38184L540.845 11.2793L521.309 0H548.608L551.697 1.7832Z"
        fill="#4F1CDE" />
    </g>
    <path d="M1200 0V675H429.808L555.292 0H1200Z" fill="#4F1CDF" />
  </g>
  <defs>
    <filter id="filter0_d_3168_22581" x="-16" y="-16" width="599.697" height="723" filterUnits="userSpaceOnUse"
      color-interpolation-filters="sRGB">
      <feFlood flood-opacity="0" result="BackgroundImageFix" />
      <feColorMatrix in="SourceAlpha" type="matrix" values="0 0 0 0 0 0 0 0 0 0 0 0 0 0 0 0 0 0 127 0"
        result="hardAlpha" />
      <feOffset dx="8" dy="8" />
      <feGaussianBlur stdDeviation="12" />
      <feColorMatrix type="matrix" values="0 0 0 0 0 0 0 0 0 0 0 0 0 0 0 0 0 0 0.16 0" />
      <feBlend mode="normal" in2="BackgroundImageFix" result="effect1_dropShadow_3168_22581" />
      <feBlend mode="normal" in="SourceGraphic" in2="effect1_dropShadow_3168_22581" result="shape" />
    </filter>
  </defs>
</svg>