<svg width="800" height="800" viewBox="0 0 800 800" fill="none" xmlns="http://www.w3.org/2000/svg">
<path d="M800 400C800 620.914 620.914 800 400 800C179.086 800 0 620.914 0 400C0 179.086 179.086 0 400 0C620.914 0 800 179.086 800 400Z" fill="#201D13"/>
<path d="M768 400C768 196.759 603.241 32 400 32C196.759 32 32 196.759 32 400C32 603.241 196.759 768 400 768V800C179.086 800 0 620.914 0 400C0 179.086 179.086 0 400 0C620.914 0 800 179.086 800 400C800 620.914 620.914 800 400 800V768C603.241 768 768 603.241 768 400Z" fill="#FFDE66"/>
<g filter="url(#filter0_d_4597_43913)">
<path d="M316.136 543.903L316.124 543.873L316.046 543.872C316.076 543.882 316.106 543.892 316.136 543.903Z" fill="#FFDE66"/>
<path d="M488.702 549.798C489.694 541.09 491.64 533.106 495.379 527.637C497.8 524.097 500.631 520.463 503.641 516.599C519.844 495.803 541.224 468.361 531.604 413.101C524.832 374.171 520.139 347.837 512.299 332.861C506.977 322.705 500.243 317.313 490.953 316.15C490.953 316.15 490.953 316.093 490.934 316.074C486.986 315.75 480.614 316.093 474.186 317.732C468.31 319.237 462.378 321.809 458.334 326.211C453.908 331.032 452.077 338.063 455.091 348.105C457.475 356.375 460.375 364.073 463.236 371.6C463.927 373.407 464.619 375.202 465.308 376.989C469.227 387.156 473.053 397.08 475.941 407.5C479.508 420.381 481.626 434.024 480.576 449.802C480.538 450.697 479.794 451.383 478.898 451.345C478.001 451.307 477.314 450.564 477.353 449.668C477.524 434.386 474.739 421.353 470.657 409.1C467.69 400.194 464.008 391.714 460.265 383.094C459.003 380.188 457.734 377.266 456.484 374.306C453.26 366.684 450.208 358.795 447.556 350.354C443.436 336.787 446.488 327.335 452.478 320.838C457.533 315.35 464.915 311.977 472.26 310.148C478.726 308.547 485.136 308.128 489.771 308.338C487.196 291.227 481.702 257.021 475.159 229.372C471.134 212.413 466.632 197.874 462.245 190.9C454.061 177.923 438.495 174.741 425.676 177.79C416.882 179.867 409.538 184.917 406.505 191.3C403.338 197.95 402.442 211.937 403.014 229.219C403.654 248.687 405.991 272.515 408.126 294.278C408.601 299.121 409.066 303.862 409.5 308.429C404.158 290.041 397.177 267.651 389.68 248.253C382.622 229.961 375.03 214.317 368.067 206.828C356.545 194.423 340.464 195.681 328.637 203.055C320.778 207.971 314.903 215.574 313.434 223.406C312.06 230.666 314.368 243.871 318.679 259.324C324.997 281.909 335.437 309.606 343.072 329.862C343.483 330.952 343.886 332.021 344.279 333.066C340.273 328.988 335.638 324.891 330.602 321.576C319.099 313.992 305.708 310.638 293.118 319.384C269.368 335.867 271.047 356.122 273.012 364.43C274.668 371.434 302.808 411.532 305.784 414.775C311.697 421.215 317.897 426.703 323.983 429.886C328.561 432.287 333.025 433.392 337.183 432.058C347.217 428.933 352.73 424.379 355.305 419.158C359.025 411.631 356.697 403.113 353.95 396.997C352.157 392.995 346.854 387.432 340.902 381.886C329.934 371.692 316.695 361.745 316.695 361.745C315.97 361.231 315.799 360.221 316.314 359.497C316.829 358.773 317.84 358.601 318.565 359.116C318.565 359.116 335.981 370.949 348.056 381.905C353.169 386.555 357.289 391.109 359.025 394.577C362.745 402.008 365.587 412.489 361.333 421.978C358.357 428.59 351.89 434.84 339.51 439.146C338.041 439.642 336.553 439.966 335.027 440.099C337.354 443.072 341.036 449.036 340.75 456.696C340.54 462.184 337.145 471.692 330.926 478.418C324.555 485.164 316.085 486.269 307.177 483.982C299.089 481.924 290.638 476.913 283.294 471.577C278.563 468.147 274.29 464.565 270.894 461.592C272.287 470.129 274.633 481.6 278.372 492.728C283.446 507.877 291.21 522.282 302.216 528.723C303.456 529.447 304.601 530.19 305.688 530.99C313.586 535.316 325.07 538.898 338.136 541.528C345.862 543.071 354.141 544.234 362.61 545.034C374.952 546.196 387.695 546.539 399.751 545.377C408.354 544.557 416.576 543.071 424.035 540.689C424.874 540.385 425.79 540.823 426.095 541.661C426.4 542.5 425.962 543.414 425.122 543.719C412.284 548.921 396.966 551.741 381.267 552.542C374.857 552.866 368.391 552.885 362.019 552.523C353.206 552.027 344.565 550.884 336.534 549.321C329.131 547.861 322.238 546.024 316.136 543.903C320.966 555.294 319.478 570.548 315.857 590.633C315.589 592.177 316.276 593.72 317.592 594.539C323.69 598.331 330.406 601.409 337.7 603.816V603.831C347.354 607.041 358.007 609.072 369.578 610.011C410.687 613.346 432.324 612.894 492.815 593.458L492.79 593.458C496.527 592.058 496.411 589.259 494.659 586.925C494.046 586.11 493.32 585.465 492.584 584.812C491.215 583.598 489.813 580.954 489.054 578.526C486.164 569.289 487.625 559.194 488.702 549.798Z" fill="#FFDE66"/>
<path d="M265.832 367.647L265.859 367.633L265.82 367.614L265.832 367.647Z" fill="#FFDE66"/>
<path d="M265.832 367.647C261.737 369.723 257.055 372.576 252.849 376.303C245.524 382.763 239.686 391.757 240.202 403.59C241.232 427.808 263.188 445.377 269.254 449.779C269.254 449.817 269.259 449.86 269.264 449.903C269.268 449.946 269.273 449.989 269.273 450.027C269.962 450.605 270.818 451.346 271.819 452.212C275.668 455.544 281.658 460.729 288.502 465.614C293.042 468.853 297.963 471.94 302.904 474.226C307.177 476.189 311.412 477.599 315.456 477.752C319.442 477.904 323.219 476.932 326.405 473.941C331.88 468.872 335.352 460.774 335.886 456.334C336.948 447.544 332.677 442.445 331.156 440.628C330.956 440.389 330.803 440.207 330.716 440.08C328.732 439.871 326.729 439.394 324.688 438.67C319.08 436.688 313.281 432.839 307.615 427.771C295.235 416.7 283.427 399.874 275.454 386.479C270.622 378.346 267.232 371.408 265.832 367.647Z" fill="#FFDE66"/>
</g>
<defs>
<filter id="filter0_d_4597_43913" x="240.17" y="176.719" width="298.586" height="439.626" filterUnits="userSpaceOnUse" color-interpolation-filters="sRGB">
<feFlood flood-opacity="0" result="BackgroundImageFix"/>
<feColorMatrix in="SourceAlpha" type="matrix" values="0 0 0 0 0 0 0 0 0 0 0 0 0 0 0 0 0 0 127 0" result="hardAlpha"/>
<feOffset dx="4.75638" dy="4.75638"/>
<feComposite in2="hardAlpha" operator="out"/>
<feColorMatrix type="matrix" values="0 0 0 0 0 0 0 0 0 0 0 0 0 0 0 0 0 0 1 0"/>
<feBlend mode="normal" in2="BackgroundImageFix" result="effect1_dropShadow_4597_43913"/>
<feBlend mode="normal" in="SourceGraphic" in2="effect1_dropShadow_4597_43913" result="shape"/>
</filter>
</defs>
</svg>
