<svg width="800" height="800" viewBox="0 0 800 800" fill="none" xmlns="http://www.w3.org/2000/svg">
<path d="M800 400C800 620.914 620.914 800 400 800C179.086 800 0 620.914 0 400C0 179.086 179.086 0 400 0C620.914 0 800 179.086 800 400Z" fill="#201313"/>
<path d="M768 400C768 196.759 603.241 32 400 32C196.759 32 32 196.759 32 400C32 603.241 196.759 768 400 768V800C179.086 800 0 620.914 0 400C0 179.086 179.086 0 400 0C620.914 0 800 179.086 800 400C800 620.914 620.914 800 400 800V768C603.241 768 768 603.241 768 400Z" fill="#FF8E8E"/>
<g filter="url(#filter0_d_4615_41387)">
<path d="M305.948 256.632C318.537 247.886 331.93 251.241 343.432 258.824C344.375 259.445 345.306 260.094 346.219 260.764C349.068 267.502 370.993 331.822 388.5 345.247C401.381 355.123 424.988 351.768 436.753 333.805C437.531 335.601 438.34 337.113 439.079 338.27L439.095 338.294L439.113 338.317C444.307 344.685 461.408 359.23 488.733 367.295C497.803 423.691 500.996 364.689 489.5 361C480.996 357.689 465.536 352.065 456.067 345.268C450.662 341.388 446.043 337.034 443.112 332.324C440 326.001 440.5 316.5 441.328 312.74C444.081 303.24 449.087 297.14 455.896 294.016C457.746 293.167 459.737 292.536 461.86 292.117C475 289.518 535.938 307.617 540.217 326.5C541.872 333.805 543.5 344.983 544.434 350.348C554.054 405.609 532.674 433.05 516.471 453.846C513.461 457.709 510.63 461.345 508.209 464.885C504.471 470.354 502.525 478.339 501.533 487.046C500.456 496.442 499.452 561.52 502.341 570.76C503.101 573.187 504.503 575.831 505.871 577.046C506.607 577.699 507.335 578.345 507.947 579.16C509.698 581.493 509.814 584.292 506.078 585.692H506.103C445.614 605.127 423.974 605.58 382.866 602.246C371.296 601.307 360.641 599.274 350.988 596.065V596.049C343.694 593.643 336.977 590.564 330.88 586.773C329.565 585.953 328.877 584.409 329.144 582.867C332.765 562.782 333.797 492.542 328.967 481.151C335.068 483.271 341.963 485.109 349.365 486.569C357.395 488.131 366.038 489.274 374.85 489.77C381.22 490.132 387.689 490.113 394.097 489.789C409.796 488.989 425.115 486.168 437.953 480.966C438.792 480.661 439.23 479.747 438.925 478.909C438.62 478.071 437.704 477.632 436.866 477.937C429.407 480.318 421.184 481.805 412.581 482.624C400.526 483.786 387.782 483.444 375.441 482.282C366.972 481.481 358.691 480.319 350.966 478.776C337.901 476.146 326.416 472.563 318.519 468.238C317.704 467.638 316.856 467.07 315.96 466.518L314.535 465.663C303.8 459.079 296.197 444.887 291.203 429.976C287.464 418.849 285.118 407.377 283.725 398.84C287.12 401.813 291.394 405.395 296.124 408.825C303.468 414.16 311.92 419.172 320.007 421.23C328.915 423.516 337.385 422.41 343.756 415.665C349.975 408.939 353.371 399.431 353.58 393.943C353.866 386.283 350.185 380.32 347.858 377.347C349.383 377.214 350.872 376.889 352.34 376.394C364.72 372.088 371.187 365.838 374.163 359.226C378.418 349.737 375.575 339.256 371.855 331.825C370.119 328.357 365.999 323.802 360.887 319.153C348.812 308.196 331.395 296.363 331.395 296.363C330.67 295.85 329.659 296.021 329.144 296.745C328.631 297.468 328.803 298.478 329.526 298.993C329.54 299.004 342.771 308.945 353.733 319.133C359.684 324.678 364.987 330.243 366.781 334.245C369.528 340.361 371.855 348.879 368.135 356.406C365.56 361.626 360.046 366.18 350.013 369.305C345.856 370.638 341.39 369.534 336.813 367.133C330.728 363.951 324.527 358.463 318.615 352.023C315.633 348.772 287.499 308.682 285.842 301.678C283.878 293.37 282.201 273.114 305.948 256.632Z" fill="#FF8E8E"/>
<path d="M328.955 481.121L328.967 481.151C328.938 481.141 328.906 481.129 328.876 481.119L328.955 481.121Z" fill="#FF8E8E"/>
<path d="M278.663 304.894C280.063 308.655 283.453 315.594 288.284 323.726C296.257 337.121 308.066 353.947 320.446 365.018C326.111 370.086 331.912 373.935 337.519 375.917C339.559 376.641 341.563 377.118 343.546 377.328C343.633 377.454 343.787 377.637 343.987 377.875C345.508 379.692 349.778 384.792 348.716 393.581C348.182 398.022 344.71 406.119 339.236 411.188C336.05 414.178 332.273 415.152 328.287 414.999C324.243 414.846 320.006 413.436 315.734 411.474C310.794 409.188 305.872 406.1 301.332 402.862C294.49 397.977 288.498 392.791 284.649 389.459C283.649 388.594 282.792 387.852 282.104 387.275L282.084 387.027C276.016 382.623 254.062 365.054 253.032 340.837C252.517 329.005 258.355 320.01 265.679 313.55C269.885 309.824 274.568 306.97 278.663 304.894Z" fill="#FF8E8E"/>
<path d="M365.734 211.175C377.561 203.801 393.642 202.544 405.163 214.948C411.01 221.242 414.902 224.832 416.949 230.916C418.995 237 425.656 264.079 428.821 277.456C431.985 290.834 437.683 317.688 433 325C422.144 341.951 404 349.247 392.5 339.247C373.392 322.63 366.096 286.961 355.903 267.11C347.501 250.749 349.062 239.357 350.531 231.526C351.999 223.695 357.876 216.091 365.734 211.175Z" fill="#FF8E8E"/>
<path d="M457.5 197.501C471.5 195.5 485.223 198.207 493.407 211.182C499.284 220.5 501.665 236 502.602 245.585C503.865 258.5 506.5 280.49 507.5 295.5C494 288.49 472.053 282.656 459 285C451.494 286.349 442.725 291.185 438.473 297.011C437 288.5 434.5 277.456 433 268C431.5 258.544 423.858 231.308 426 222.5C430.5 204 442 199.715 457.5 197.501Z" fill="#FF8E8E"/>
</g>
<defs>
<filter id="filter0_d_4615_41387" x="253" y="196.908" width="298.586" height="411.67" filterUnits="userSpaceOnUse" color-interpolation-filters="sRGB">
<feFlood flood-opacity="0" result="BackgroundImageFix"/>
<feColorMatrix in="SourceAlpha" type="matrix" values="0 0 0 0 0 0 0 0 0 0 0 0 0 0 0 0 0 0 127 0" result="hardAlpha"/>
<feOffset dx="4.75638" dy="4.75638"/>
<feComposite in2="hardAlpha" operator="out"/>
<feColorMatrix type="matrix" values="0 0 0 0 0 0 0 0 0 0 0 0 0 0 0 0 0 0 1 0"/>
<feBlend mode="normal" in2="BackgroundImageFix" result="effect1_dropShadow_4615_41387"/>
<feBlend mode="normal" in="SourceGraphic" in2="effect1_dropShadow_4615_41387" result="shape"/>
</filter>
</defs>
</svg>
